<svg xmlns="http://www.w3.org/2000/svg" viewBox="0 0 160 160" width="160" height="160" role="img" aria-label="Owl logo">
  <defs>
    <linearGradient id="g" x1="0" x2="1" y1="0" y2="1">
      <stop offset="0" stop-color="#ffffff" />
      <stop offset="1" stop-color="#f3e7d3" />
    </linearGradient>
  </defs>
  <rect width="160" height="160" rx="20" fill="none" />

  <!-- Branch -->
  <g transform="translate(8,100)">
    <path d="M8 28c18-10 46-12 70-8 22 3 52 10 74 0" fill="none" stroke="#fff" stroke-opacity="0.12" stroke-width="6" stroke-linecap="round" />
  </g>

  <!-- Owl body perched on branch -->
  <g transform="translate(24,18) scale(1.0)">
    <!-- body -->
    <path d="M56 2 C36 2 20 18 20 38 C20 64 34 84 56 84 C78 84 92 64 92 38 C92 18 76 2 56 2 Z" fill="url(#g)" />

    <!-- wings subtle -->
    <path d="M28 48 C40 50 46 66 56 66 C66 66 72 50 84 48" fill="rgba(0,0,0,0.04)" />

    <!-- eyes -->
    <circle cx="42" cy="36" r="8" fill="#0b0b0c" />
    <circle cx="70" cy="36" r="8" fill="#0b0b0c" />
    <circle cx="44" cy="34" r="3" fill="#fff" opacity="0.95" />
    <circle cx="72" cy="34" r="3" fill="#fff" opacity="0.95" />

    <!-- beak -->
    <path d="M56 46c-3 3-3 6 0 9c3-3 3-6 0-9z" fill="#d08f57" />

    <!-- ear tufts -->
    <path d="M34 10c4-6 14-8 22-6" stroke="#fff" stroke-width="1.6" stroke-linecap="round" fill="none" opacity="0.9" />
    <path d="M78 10c-4-6-14-8-22-6" stroke="#fff" stroke-width="1.6" stroke-linecap="round" fill="none" opacity="0.9" />

    <!-- subtle chest feathers -->
    <path d="M46 58c2 6 6 8 10 8c4 0 8-2 10-8" stroke="rgba(0,0,0,0.06)" stroke-width="1.8" stroke-linecap="round" fill="none" />
  </g>
</svg>
